<svg xmlns="http://www.w3.org/2000/svg" viewBox="0 0 1200 300">
  <defs>
    <linearGradient id="bg-gradient" x1="0%" y1="0%" x2="100%" y2="100%">
      <stop offset="0%" style="stop-color:#1a237e;stop-opacity:1" />
      <stop offset="100%" style="stop-color:#7c4dff;stop-opacity:1" />
    </linearGradient>
    <style type="text/css">
      @import url('https://fonts.googleapis.com/css2?family=Playfair+Display:ital,wght@1,600&amp;display=swap');
    </style>
  </defs>
  <rect width="100%" height="100%" fill="url(#bg-gradient)" />
  
  <g transform="translate(100, 50) scale(1)">
    <path d="M0 50 Q50 0 100 50 L100 200 Q50 150 0 200 Z" fill="#ffffff" fill-opacity="0.9"/>
    <path d="M100 50 Q150 0 200 50 L200 200 Q150 150 100 200 Z" fill="#ffffff" fill-opacity="0.7"/>
    <text x="100" y="140" font-family="'Playfair Display', serif" font-size="36" fill="#1a237e" text-anchor="middle" transform="rotate(-10 100,140)">monFocus</text>
  </g>
  
  <g transform="translate(900, 50) scale(1)">
    <path d="M0 50 Q50 0 100 50 L100 200 Q50 150 0 200 Z" fill="#ffffff" fill-opacity="0.9"/>
    <path d="M100 50 Q150 0 200 50 L200 200 Q150 150 100 200 Z" fill="#ffffff" fill-opacity="0.7"/>
    <text x="100" y="140" font-family="'Playfair Display', serif" font-size="36" fill="#1a237e" text-anchor="middle" transform="rotate(-10 100,140)">monFocus</text>
  </g>
</svg>