<svg xmlns="http://www.w3.org/2000/svg" viewBox="0 0 200 200" style="background-color: black;">
<!-- Création de spirales et d'arcs -->
<g transform="translate(150 100)">
    <!-- Ajout d'arcs de cercle -->
    <path d="M90,0 A45,45 0 0,1 -90,0" fill="none" stroke="hsl(120, 100%, 50%)" stroke-width="2">
        <animateTransform attributeName="transform" type="rotate" from="0" to="-360" dur="60s" repeatCount="indefinite"/>
    </path>
    <path d="M80,0 A40,40 0 0,1 -80,0" fill="none" stroke="hsl(135, 100%, 50%)" stroke-width="3">
        <animateTransform attributeName="transform" type="rotate" from="0" to="360" dur="58s" repeatCount="indefinite"/>
    </path>
    <path d="M70,0 A35,35 0 0,1 -70,0" fill="none" stroke="hsl(150, 100%, 50%)" stroke-width="4">
        <animateTransform attributeName="transform" type="rotate" from="0" to="-360" dur="56s" repeatCount="indefinite"/>
    </path>
    <path d="M60,0 A30,30 0 0,1 -60,0" fill="none" stroke="hsl(165, 100%, 50%)" stroke-width="5">
        <animateTransform attributeName="transform" type="rotate" from="0" to="360" dur="54s" repeatCount="indefinite"/>
    </path>
    <path d="M50,0 A25,25 0 0,1 -50,0" fill="none" stroke="hsl(180, 100%, 50%)" stroke-width="5">
        <animateTransform attributeName="transform" type="rotate" from="0" to="-360" dur="52s" repeatCount="indefinite"/>
    </path>
    <path d="M40,0 A20,20 0 0,1 -40,0" fill="none" stroke="hsl(195, 100%, 50%)" stroke-width="6">
        <animateTransform attributeName="transform" type="rotate" from="0" to="360" dur="50s" repeatCount="indefinite"/>
    </path>
</g>

<!-- Représentation graphique de l'apprentissage personnalisé 1 à 1 -->
<g transform="translate(20, 70) scale(0.4)">
    <!-- Cercle de gauche -->
    <circle cx="-50" cy="0" r="20" fill="#FFD700"/>
    <!-- Cercle de droite -->
    <circle cx="50" cy="0" r="20" fill="#FFD700"/>
    <!-- Lignes du cercle de gauche -->
    <line x1="-40" y1="-5" x2="-20" y2="-5" stroke="#FFD700" stroke-width="4"/>
    <line x1="-40" y1="5" x2="-20" y2="5" stroke="#FFD700" stroke-width="4"/>
    <!-- Flèches -->
    <path d="M-20,0 C0,-30 0,30 20,0" fill="none" stroke="#FFD700" stroke-width="4"/>
    <path d="M20,0 C0,30 0,-30 -20,0" fill="none" stroke="#FFD700" stroke-width="4"/>
    <!-- Pointes de flèches -->
    <polygon points="20,0 10,-5 10,5" fill="#FFD700"/>
    <polygon points="-20,0 -10,-5 -10,5" fill="#FFD700"/>
</g>

<!-- Nouvel élément : Cerveau stylisé avec connections neuronales (repositionné) -->
<g transform="translate(150, 100) scale(0.4)">
    <!-- Contour du cerveau -->
    <path d="M-40,0 C-40,-20 -20,-40 0,-40 C20,-40 40,-20 40,0 C40,20 20,40 0,40 C-20,40 -40,20 -40,0" 
          fill="none" stroke="#FFD700" stroke-width="2">
        <animate attributeName="stroke-dasharray" values="0,300;300,0" dur="10s" repeatCount="indefinite"/>
    </path>
    
    <!-- Connections neuronales -->
    <g>
        <line x1="-30" y1="-30" x2="30" y2="30" stroke="#4CAF50" stroke-width="1">
            <animate attributeName="stroke-dasharray" values="0,100;100,0" dur="3s" repeatCount="indefinite"/>
        </line>
        <circle cx="-30" cy="-30" r="3" fill="#4CAF50">
            <animate attributeName="r" values="2;4;2" dur="2s" repeatCount="indefinite"/>
        </circle>
        <circle cx="30" cy="30" r="3" fill="#4CAF50">
            <animate attributeName="r" values="2;4;2" dur="2s" repeatCount="indefinite"/>
        </circle>
    </g>
    <g>
        <line x1="30" y1="-30" x2="-30" y2="30" stroke="#2196F3" stroke-width="1">
            <animate attributeName="stroke-dasharray" values="0,100;100,0" dur="4s" repeatCount="indefinite"/>
        </line>
        <circle cx="30" cy="-30" r="3" fill="#2196F3">
            <animate attributeName="r" values="2;4;2" dur="3s" repeatCount="indefinite"/>
        </circle>
        <circle cx="-30" cy="30" r="3" fill="#2196F3">
            <animate attributeName="r" values="2;4;2" dur="3s" repeatCount="indefinite"/>
        </circle>
    </g>
    
    <!-- Icône d'ampoule au centre symbolisant l'idée/compréhension -->
    <path d="M-5,-5 L5,-5 L5,5 Q0,10 -5,5 Z" fill="#FFC107">
        <animate attributeName="fill" values="#FFC107;#FFECB3;#FFC107" dur="3s" repeatCount="indefinite"/>
    </path>
    <circle cx="0" cy="-8" r="3" fill="#FFC107">
        <animate attributeName="fill" values="#FFC107;#FFECB3;#FFC107" dur="3s" repeatCount="indefinite"/>
    </circle>
</g>
</svg>