<svg xmlns="http://www.w3.org/2000/svg" viewBox="0 0 200 200" style="background-color: black;">
    <defs>
        <linearGradient id="beauGradient" x1="0%" y1="0%" x2="100%" y2="100%">
            <stop offset="0%" style="stop-color:rgba(26, 35, 126, 0.7)"/>
            <stop offset="50%" style="stop-color:rgba(75, 56, 190, 0.7)"/>
            <stop offset="100%" style="stop-color:rgba(124, 77, 255, 0.7)"/>
        </linearGradient>
        <linearGradient id="newArcGradient" x1="0%" y1="0%" x2="100%" y2="0%">
            <stop offset="0%" style="stop-color:#3a1c71"/>
            <stop offset="50%" style="stop-color:#d76d77"/>
            <stop offset="100%" style="stop-color:#ffaf7b"/>
        </linearGradient>
        <linearGradient id="bookGradient" x1="0%" y1="0%" x2="100%" y2="100%">
            <stop offset="0%" style="stop-color:#1a237e;stop-opacity:0.3" />
            <stop offset="100%" style="stop-color:#7c4dff;stop-opacity:0.3" />
        </linearGradient>
        <linearGradient id="pageGradient" x1="0%" y1="0%" x2="100%" y2="0%">
            <stop offset="0%" style="stop-color:#ffffff;stop-opacity:0.1" />
            <stop offset="100%" style="stop-color:#ffffff;stop-opacity:0.5" />
        </linearGradient>
    </defs>
    
    <!-- Livre en arrière-plan -->
    <g transform="translate(50, 50) scale(0.5) rotate(-10)">
        <!-- Page de gauche (fixe) -->
        <path d="M0 50 Q50 0 100 50 L100 150 Q50 100 0 150 Z" fill="url(#bookGradient)"/>
        
        <!-- Page de droite (fixe) -->
        <path d="M100 50 Q150 0 200 50 L200 150 Q150 100 100 150 Z" fill="url(#bookGradient)" opacity="0.7"/>
        
        <!-- Page qui tourne -->
        <g>
            <animateTransform
                attributeName="transform"
                type="rotate"
                values="0 100 100; 0 100 100; -180 100 100; -180 100 100"
                keyTimes="0; 0.7; 0.9; 1"
                dur="13s"
                repeatCount="indefinite"
            />
            <!-- Face avant de la page -->
            <path d="M100 50 Q150 0 200 50 L200 150 Q150 100 100 150 Z" fill="url(#pageGradient)">
                <animate
                    attributeName="d"
                    values="M100 50 Q150 0 200 50 L200 150 Q150 100 100 150 Z;
                            M100 50 Q150 0 200 50 L200 150 Q150 100 100 150 Z;
                            M100 50 Q125 25 150 50 L150 150 Q125 125 100 150 Z;
                            M100 50 Q100 50 100 50 L100 150 Q100 150 100 150 Z;
                            M100 50 Q100 50 100 50 L100 150 Q100 150 100 150 Z"
                    keyTimes="0; 0.7; 0.8; 0.9; 1"
                    dur="13s"
                    repeatCount="indefinite"
                />
            </path>
            <!-- Ombre de la page -->
            <path d="M100 50 Q150 0 200 50 L200 150 Q150 100 100 150 Z" fill="rgba(0,0,0,0.2)">
                <animate
                    attributeName="d"
                    values="M100 50 Q150 0 200 50 L200 150 Q150 100 100 150 Z;
                            M100 50 Q150 0 200 50 L200 150 Q150 100 100 150 Z;
                            M100 50 Q125 25 150 50 L150 150 Q125 125 100 150 Z;
                            M100 50 Q100 50 100 50 L100 150 Q100 150 100 150 Z;
                            M100 50 Q75 75 50 50 L50 150 Q75 125 100 150 Z;
                            M100 50 Q50 0 0 50 L0 150 Q50 100 100 150 Z;
                            M100 50 Q50 0 0 50 L0 150 Q50 100 100 150 Z"
                    keyTimes="0; 0.7; 0.8; 0.85; 0.9; 0.95; 1"
                    dur="13s"
                    repeatCount="indefinite"
                />
                <animate
                    attributeName="opacity"
                    values="0; 0; 0.2; 0.5; 0.2; 0; 0"
                    keyTimes="0; 0.7; 0.8; 0.85; 0.9; 0.95; 1"
                    dur="13s"
                    repeatCount="indefinite"
                />
            </path>
        </g>
    </g>
    
    <!-- Tous les arcs centrés -->
    <g transform="translate(100 100)">
        <!-- Arcs originaux -->
        <path d="M90,0 A90,90 0 0,1 -90,0" fill="none" stroke="url(#beauGradient)" stroke-width="2">
            <animateTransform attributeName="transform" type="rotate" from="0" to="-360" dur="60s" repeatCount="indefinite"/>
        </path>
        <path d="M80,0 A80,80 0 0,1 -80,0" fill="none" stroke="url(#beauGradient)" stroke-width="3">
            <animateTransform attributeName="transform" type="rotate" from="0" to="360" dur="58s" repeatCount="indefinite"/>
        </path>
        <path d="M70,0 A70,70 0 0,1 -70,0" fill="none" stroke="url(#beauGradient)" stroke-width="4">
            <animateTransform attributeName="transform" type="rotate" from="0" to="-360" dur="56s" repeatCount="indefinite"/>
        </path>
        <path d="M60,0 A60,60 0 0,1 -60,0" fill="none" stroke="url(#beauGradient)" stroke-width="5">
            <animateTransform attributeName="transform" type="rotate" from="0" to="360" dur="54s" repeatCount="indefinite"/>
        </path>
        <path d="M50,0 A50,50 0 0,1 -50,0" fill="none" stroke="url(#beauGradient)" stroke-width="5">
            <animateTransform attributeName="transform" type="rotate" from="0" to="-360" dur="52s" repeatCount="indefinite"/>
        </path>
        <path d="M40,0 A40,40 0 0,1 -40,0" fill="none" stroke="url(#beauGradient)" stroke-width="6">
            <animateTransform attributeName="transform" type="rotate" from="0" to="360" dur="50s" repeatCount="indefinite"/>
        </path>

        <!-- Nouveaux gros arcs (vitesse réduite) -->
        <path d="M60,0 A60,60 0 0,1 -60,0" fill="none" stroke="url(#newArcGradient)" stroke-width="8" opacity="0.8">
            <animateTransform attributeName="transform" type="rotate" from="0" to="360" dur="600s" repeatCount="indefinite"/>
        </path>
        <path d="M50,0 A50,50 0 0,1 -50,0" fill="none" stroke="url(#newArcGradient)" stroke-width="10" opacity="0.9">
            <animateTransform attributeName="transform" type="rotate" from="0" to="360" dur="720s" repeatCount="indefinite"/>
        </path>
        <path d="M40,0 A40,40 0 0,1 -40,0" fill="none" stroke="url(#newArcGradient)" stroke-width="12">
            <animateTransform attributeName="transform" type="rotate" from="0" to="360" dur="840s" repeatCount="indefinite"/>
        </path>
    </g>

    <!-- Cerveau stylisé avec connections neuronales -->
    <g transform="translate(100, 100) scale(0.4)">
        <path d="M-40,0 C-40,-20 -20,-40 0,-40 C20,-40 40,-20 40,0 C40,20 20,40 0,40 C-20,40 -40,20 -40,0" 
              fill="none" stroke="#FFD700" stroke-width="2">
            <animate attributeName="stroke-dasharray" values="0,300;300,0" dur="10s" repeatCount="indefinite"/>
        </path>
        
        <g>
            <line x1="-30" y1="-30" x2="30" y2="30" stroke="#4CAF50" stroke-width="1">
                <animate attributeName="stroke-dasharray" values="0,100;100,0" dur="3s" repeatCount="indefinite"/>
            </line>
            <circle cx="-30" cy="-30" r="3" fill="#4CAF50">
                <animate attributeName="r" values="2;4;2" dur="2s" repeatCount="indefinite"/>
            </circle>
            <circle cx="30" cy="30" r="3" fill="#4CAF50">
                <animate attributeName="r" values="2;4;2" dur="2s" repeatCount="indefinite"/>
            </circle>
        </g>
        <g>
            <line x1="30" y1="-30" x2="-30" y2="30" stroke="#2196F3" stroke-width="1">
                <animate attributeName="stroke-dasharray" values="0,100;100,0" dur="4s" repeatCount="indefinite"/>
            </line>
            <circle cx="30" cy="-30" r="3" fill="#2196F3">
                <animate attributeName="r" values="2;4;2" dur="3s" repeatCount="indefinite"/>
            </circle>
            <circle cx="-30" cy="30" r="3" fill="#2196F3">
                <animate attributeName="r" values="2;4;2" dur="3s" repeatCount="indefinite"/>
            </circle>
        </g>
        
        <path d="M-5,-5 L5,-5 L5,5 Q0,10 -5,5 Z" fill="#FFC107">
            <animate attributeName="fill" values="#FFC107;#FFECB3;#FFC107" dur="3s" repeatCount="indefinite"/>
        </path>
        <circle cx="0" cy="-8" r="3" fill="#FFC107">
            <animate attributeName="fill" values="#FFC107;#FFECB3;#FFC107" dur="3s" repeatCount="indefinite"/>
        </circle>
    </g>

    <!-- Représentation graphique de l'apprentissage personnalisé 1 à 1 -->
    <g transform="translate(40, 160) scale(0.3)">
        <circle cx="-50" cy="0" r="20" fill="#FFD700"/>
        <circle cx="50" cy="0" r="20" fill="#FFD700"/>
        <line x1="-40" y1="-5" x2="-20" y2="-5" stroke="#FFD700" stroke-width="4"/>
        <line x1="-40" y1="5" x2="-20" y2="5" stroke="#FFD700" stroke-width="4"/>
        <path d="M-20,0 C0,-30 0,30 20,0" fill="none" stroke="#FFD700" stroke-width="4"/>
        <path d="M20,0 C0,30 0,-30 -20,0" fill="none" stroke="#FFD700" stroke-width="4"/>
        <polygon points="20,0 10,-5 10,5" fill="#FFD700"/>
        <polygon points="-20,0 -10,-5 -10,5" fill="#FFD700"/>
    </g>
</svg>