<svg width="600" height="600" xmlns="http://www.w3.org/2000/svg">
  <!-- Fond noir -->
  <rect width="100%" height="100%" fill="black"/>
  
  <!-- Cercle de base -->
  <circle cx="300" cy="300" r="280" fill="none" stroke="rgba(255,255,255,0.1)" stroke-width="3"/>
  
  <!-- 'F' stylisé -->
  <path d="M220 140 L380 140 M220 140 L220 380 M220 260 L340 260" stroke="white" stroke-width="30" stroke-linecap="round"/>
  
  <!-- Texte 'mon' et 'ocus' -->
  <text x="300" y="440" font-family="Arial, sans-serif" font-size="48" fill="white" text-anchor="middle">
    <tspan font-size="40" fill="rgba(255,255,255,0.7)">mon</tspan>
    <tspan dx="10" font-size="48">ocus</tspan>
  </text>
  
  <!-- Lignes rayonnantes -->
  <g stroke="rgba(255,255,255,0.3)" stroke-width="2">
    <line x1="300" y1="20" x2="300" y2="100"/>
    <line x1="580" y1="300" x2="500" y2="300"/>
    <line x1="300" y1="580" x2="300" y2="500"/>
    <line x1="20" y1="300" x2="100" y2="300"/>
    <line x1="100" y1="100" x2="160" y2="160"/>
    <line x1="500" y1="100" x2="440" y2="160"/>
    <line x1="500" y1="500" x2="440" y2="440"/>
    <line x1="100" y1="500" x2="160" y2="440"/>
  </g>
  
  <!-- Points lumineux -->
  <g fill="white">
    <circle cx="300" cy="20" r="4"/>
    <circle cx="580" cy="300" r="4"/>
    <circle cx="300" cy="580" r="4"/>
    <circle cx="20" cy="300" r="4"/>
    <circle cx="100" cy="100" r="4"/>
    <circle cx="500" cy="100" r="4"/>
    <circle cx="500" cy="500" r="4"/>
    <circle cx="100" cy="500" r="4"/>
  </g>
</svg>