<svg viewBox="0 0 600 600" xmlns="http://www.w3.org/2000/svg">
  <defs>
    <style>
      @keyframes moveF {
        0% { transform: translateZ(0px); opacity: 1; }
        100% { transform: translateZ(-200px); opacity: 0; }
      }
      .f-letter {
        animation: moveF 2s linear infinite;
      }
      .f-letter:nth-child(2) { animation-delay: -0.4s; }
      .f-letter:nth-child(3) { animation-delay: -0.8s; }
      .f-letter:nth-child(4) { animation-delay: -1.2s; }
      .f-letter:nth-child(5) { animation-delay: -1.6s; }
    </style>
    <linearGradient id="bookGradient" x1="0%" y1="0%" x2="100%" y2="100%">
      <stop offset="0%" style="stop-color:#1a237e;stop-opacity:0.3" />
      <stop offset="100%" style="stop-color:#7c4dff;stop-opacity:0.3" />
    </linearGradient>
    <linearGradient id="pageGradient" x1="0%" y1="0%" x2="100%" y2="0%">
      <stop offset="0%" style="stop-color:#ffffff;stop-opacity:0.1" />
      <stop offset="100%" style="stop-color:#ffffff;stop-opacity:0.3" />
    </linearGradient>
  </defs>

  <!-- Fond noir -->
  <rect width="100%" height="100%" fill="black"/>
  
  <!-- Livre en arrière-plan avec effet de page tournante -->
  <g transform="translate(150, 150) scale(1.5) rotate(-10)">
    <!-- Page de gauche (fixe) -->
    <path d="M0 50 Q50 0 100 50 L100 150 Q50 100 0 150 Z" fill="url(#bookGradient)"/>
    
    <!-- Page de droite (fixe) -->
    <path d="M100 50 Q150 0 200 50 L200 150 Q150 100 100 150 Z" fill="url(#bookGradient)" opacity="0.7"/>
    
    <!-- Page qui tourne -->
    <g>
      <animateTransform
        attributeName="transform"
        type="rotate"
        values="0 100 100; 0 100 100; -180 100 100; -180 100 100"
        keyTimes="0; 0.7; 0.9; 1"
        dur="13s"
        repeatCount="indefinite"
      />
      <!-- Face avant de la page -->
      <path d="M100 50 Q150 0 200 50 L200 150 Q150 100 100 150 Z" fill="url(#pageGradient)">
        <animate
          attributeName="d"
          values="M100 50 Q150 0 200 50 L200 150 Q150 100 100 150 Z;
                  M100 50 Q150 0 200 50 L200 150 Q150 100 100 150 Z;
                  M100 50 Q125 25 150 50 L150 150 Q125 125 100 150 Z;
                  M100 50 Q100 50 100 50 L100 150 Q100 150 100 150 Z;
                  M100 50 Q100 50 100 50 L100 150 Q100 150 100 150 Z"
          keyTimes="0; 0.7; 0.8; 0.9; 1"
          dur="13s"
          repeatCount="indefinite"
        />
      </path>
      <!-- Ombre de la page -->
      <path d="M100 50 Q150 0 200 50 L200 150 Q150 100 100 150 Z" fill="rgba(0,0,0,0.2)">
        <animate
          attributeName="d"
          values="M100 50 Q150 0 200 50 L200 150 Q150 100 100 150 Z;
                  M100 50 Q150 0 200 50 L200 150 Q150 100 100 150 Z;
                  M100 50 Q125 25 150 50 L150 150 Q125 125 100 150 Z;
                  M100 50 Q100 50 100 50 L100 150 Q100 150 100 150 Z;
                  M100 50 Q75 75 50 50 L50 150 Q75 125 100 150 Z;
                  M100 50 Q50 0 0 50 L0 150 Q50 100 100 150 Z;
                  M100 50 Q50 0 0 50 L0 150 Q50 100 100 150 Z"
          keyTimes="0; 0.7; 0.8; 0.85; 0.9; 0.95; 1"
          dur="13s"
          repeatCount="indefinite"
        />
        <animate
          attributeName="opacity"
          values="0; 0; 0.2; 0.5; 0.2; 0; 0"
          keyTimes="0; 0.7; 0.8; 0.85; 0.9; 0.95; 1"
          dur="13s"
          repeatCount="indefinite"
        />
      </path>
    </g>
  </g>
  
  <!-- Cercle de base -->
  <circle cx="300" cy="300" r="280" fill="none" stroke="rgba(255,255,255,0.1)" stroke-width="3"/>
  
  <!-- 'F' stylisé avec animation -->
  <g transform="translate(345 260)">
    <g class="f-letter">
      <path d="M-80 -120 L80 -120 M-80 -120 L-80 120 M-80 0 L40 0" stroke="white" stroke-width="30" stroke-linecap="round"/>
    </g>
    <g class="f-letter">
      <path d="M-80 -120 L80 -120 M-80 -120 L-80 120 M-80 0 L40 0" stroke="white" stroke-width="30" stroke-linecap="round"/>
    </g>
    <g class="f-letter">
      <path d="M-80 -120 L80 -120 M-80 -120 L-80 120 M-80 0 L40 0" stroke="white" stroke-width="30" stroke-linecap="round"/>
    </g>
    <g class="f-letter">
      <path d="M-80 -120 L80 -120 M-80 -120 L-80 120 M-80 0 L40 0" stroke="white" stroke-width="30" stroke-linecap="round"/>
    </g>
    <g class="f-letter">
      <path d="M-80 -120 L80 -120 M-80 -120 L-80 120 M-80 0 L40 0" stroke="white" stroke-width="30" stroke-linecap="round"/>
    </g>
  </g>
  
  <!-- Texte 'mon' et 'ocus' -->
  <text x="280" y="440" font-family="Arial, sans-serif" font-size="48" fill="white" text-anchor="middle">
    <tspan font-size="40" fill="rgba(255,255,255,0.7)">mon</tspan>
    <tspan dx="10" font-size="48">ocus</tspan>
  </text>
  
  <!-- Lignes rayonnantes -->
  <g stroke="rgba(255,255,255,0.3)" stroke-width="2">
    <line x1="300" y1="20" x2="300" y2="100"/>
    <line x1="580" y1="300" x2="500" y2="300"/>
    <line x1="300" y1="580" x2="300" y2="500"/>
    <line x1="20" y1="300" x2="100" y2="300"/>
    <line x1="100" y1="100" x2="160" y2="160"/>
    <line x1="500" y1="100" x2="440" y2="160"/>
    <line x1="500" y1="500" x2="440" y2="440"/>
    <line x1="100" y1="500" x2="160" y2="440"/>
  </g>
  
  <!-- Points lumineux -->
  <g fill="white">
    <circle cx="300" cy="20" r="4"/>
    <circle cx="580" cy="300" r="4"/>
    <circle cx="300" cy="580" r="4"/>
    <circle cx="20" cy="300" r="4"/>
    <circle cx="100" cy="100" r="4"/>
    <circle cx="500" cy="100" r="4"/>
    <circle cx="500" cy="500" r="4"/>
    <circle cx="100" cy="500" r="4"/>
  </g>
</svg>